HIERARCHY
ROOT hip
{
	OFFSET	0.00  0.00  0.00 
	CHANNELS 6 Xposition Yposition Zposition Xrotation Zrotation Yrotation
	JOINT abdomen
	{
		OFFSET	0.000000 3.402643 0.000000
		CHANNELS 3 Xrotation Zrotation Yrotation
		JOINT chest
		{
			OFFSET	0.000000 8.438564 -0.680529
			CHANNELS 3 Xrotation Zrotation Yrotation
			JOINT neck
			{
				OFFSET	0.000000 10.207942 -0.272212
				CHANNELS 3 Xrotation Zrotation Yrotation
				JOINT head
				{
					OFFSET	0.000000 3.130431 0.000000
					CHANNELS 3 Xrotation Zrotation Yrotation
					End Site
					{
						OFFSET 0.000000 3.130435 0.000000
					}
				}
			}
			JOINT lCollar
			{
				OFFSET	3.402647 6.669187 -0.816635
				CHANNELS 3 Yrotation Zrotation Xrotation
				JOINT lShldr
				{
					OFFSET	3.266541 0.000000 0.000000
					CHANNELS 3 Zrotation Yrotation Xrotation
					JOINT lForeArm
					{
						OFFSET	10.071835 0.000000 0.000000
						CHANNELS 3 Yrotation Zrotation Xrotation
						JOINT lHand
						{
							OFFSET	8.438563 0.000000 0.000000
							CHANNELS 3 Zrotation Yrotation Xrotation
							End Site
							{
								OFFSET 4.083176 0.000000 0.000000
							}
						}
					}
				}
			}
			JOINT rCollar
			{
				OFFSET	-3.538753 6.669187 -0.816635
				CHANNELS 3 Yrotation Zrotation Xrotation
				JOINT rShldr
				{
					OFFSET	-3.130435 0.000000 0.000000
					CHANNELS 3 Zrotation Yrotation Xrotation
					JOINT rForeArm
					{
						OFFSET	-10.207940 0.000000 0.000000
						CHANNELS 3 Yrotation Zrotation Xrotation
						JOINT rHand
						{
							OFFSET	-8.302459 0.000000 0.000000
							CHANNELS 3 Zrotation Yrotation Xrotation
							End Site
							{
								OFFSET -4.083176 0.000000 0.000000
							}
						}
					}
				}
			}
		}
	}
	JOINT lThigh
	{
		OFFSET	5.308129 -1.633274 1.361059
		CHANNELS 3 Xrotation Zrotation Yrotation
		JOINT lShin
		{
			OFFSET	-2.041588 -20.007561 0.000000
			CHANNELS 3 Xrotation Zrotation Yrotation
			JOINT lFoot
			{
				OFFSET	0.000000 -19.190928 -1.224953
				CHANNELS 3 Xrotation Yrotation Zrotation
				End Site
				{
					OFFSET 0.000000 -2.449905 4.627600
				}
			}
		}
	}
	JOINT rThigh
	{
		OFFSET	-5.308129 -1.633274 1.361059
		CHANNELS 3 Xrotation Zrotation Yrotation
		JOINT rShin
		{
			OFFSET	2.041588 -20.007561 0.000000
			CHANNELS 3 Xrotation Zrotation Yrotation
			JOINT rFoot
			{
				OFFSET	0.000000 -19.190928 -1.224953
				CHANNELS 3 Xrotation Yrotation Zrotation
				End Site
				{
					OFFSET 0.000000 -2.449905 4.627600
				}
			}
		}
	}
}
MOTION
Frames:     18
Frame Time: 0.033333
0.000000 44.553722 0.000000 0.000000 0.000000 0.000000 -0.341797 -0.722659 -0.576173 -0.439453 -0.625002 -0.459091 0.000000 0.000000 0.000000 0.000000 0.000000 0.000000 0.273438 -8.007812 -0.009766 0.000000 -4.003906 0.000000 -8.007812 0.000000 0.000000 -7.002098 0.000000 0.000000 0.000000 7.988281 -0.195313 -0.263672 3.994144 -0.449214 7.988281 0.000000 0.000000 6.992188 0.000000 0.000000 -5.156250 4.003906 0.215526 10.654297 -1.044922 -0.224609 -1.591797 0.283203 1.708984 -5.224609 -7.861328 -0.196648 11.054688 3.906375 0.117208 29.296873 -0.546875 -1.552734 
0.064428 44.375797 4.570405 -6.601563 -0.605470 -0.195313 1.835938 -0.507816 -0.429686 15.937500 0.000000 0.000000 0.996094 0.400392 -0.058594 -8.613282 0.000000 0.000000 4.980468 -5.605469 0.214844 -70.057457 -15.011206 18.660021 -22.608868 -9.346259 0.107650 5.966797 -0.068361 0.166018 -5.009840 5.586020 0.214833 71.630859 8.681640 18.544926 22.578125 9.306641 0.117191 -5.957031 0.058594 0.166016 7.207031 5.703125 -0.078126 6.074218 -6.425781 -0.087891 -5.419922 0.947266 0.820315 8.271484 -5.205204 0.136697 3.613281 6.337958 -0.361320 -2.011719 -1.054687 -0.517398 
0.106439 44.399467 9.149755 -11.211307 -1.406302 -0.312500 1.835938 0.869145 -0.341796 11.367188 0.761744 -0.244128 -1.123051 4.228529 -0.136718 -21.153614 -0.771529 -0.068373 8.105469 -4.853701 0.429700 -70.057457 -15.011206 18.660021 -22.744141 -12.354244 0.060367 5.966797 -0.068361 0.166018 -5.009840 5.586020 0.214833 71.630859 8.681640 18.544926 20.976563 4.267820 0.234269 -5.957031 0.058594 0.166016 18.564455 4.707272 -0.322168 -1.201172 -5.917969 0.623993 -3.955078 1.542969 -2.978516 18.740236 -1.523517 0.917894 -1.591797 6.005859 -0.926713 -23.886719 2.636719 0.995644 
0.114888 44.653015 12.918814 -12.646953 -2.295021 -0.332040 1.337891 2.011719 -0.283203 2.060547 1.230469 -0.566406 -2.636739 7.607481 -0.146481 -35.664063 -2.197280 -0.166391 9.169923 -5.527491 0.585946 -70.057457 -15.011206 18.660021 -18.477541 -13.184244 0.029519 5.966797 -0.068361 0.166018 -5.009840 5.586020 0.214833 71.630859 8.681640 18.544926 14.726563 -4.335938 0.351562 -5.957031 0.058594 0.166016 22.529297 4.306899 -0.478379 -1.796875 -5.869141 0.673828 -2.167969 1.611328 -5.820313 23.300781 1.240234 1.708984 -2.226563 5.957031 -1.015643 -37.402344 8.984374 2.041015 
0.098859 45.048267 15.799834 -11.670321 -3.173935 -0.292981 1.162109 2.568368 -0.253907 -4.765625 1.386719 -0.712895 -2.490234 9.443359 -0.078125 -49.785152 -3.798828 -0.283850 9.277344 -6.083985 0.634766 -70.057457 -15.011206 18.660021 -14.511719 -14.003906 0.080488 5.966797 -0.068361 0.166018 -5.009840 5.586020 0.214833 71.630859 8.681640 18.544926 9.091797 -11.816711 0.459022 -5.957031 0.058594 0.166016 23.017576 4.218750 -0.507819 -2.226563 -5.839844 0.711897 0.419922 1.201172 -7.978543 24.628906 3.291016 2.285178 -2.470703 5.947309 -1.092732 -42.773434 18.818359 2.321189 
0.067437 45.497040 17.715055 -9.052977 -3.945463 -0.214857 1.386719 2.675792 -0.234374 -8.964844 1.308594 -0.751733 -1.123051 10.009798 0.039063 -61.142574 -5.117265 -0.401268 9.277344 -6.083985 0.634766 -70.057457 -15.011206 18.660021 -10.859374 -14.805325 0.217348 5.966797 -0.068361 0.166018 -5.009840 5.586020 0.214833 71.630859 8.681640 18.544926 4.042969 -18.252913 0.576201 -5.957031 0.058594 0.166016 20.742188 4.306883 -0.429571 -2.421875 -5.839844 0.741194 2.617188 0.351565 -9.531187 23.476564 4.717090 2.470678 -2.431641 6.005902 -1.112254 -39.501953 32.128910 -0.151689 
0.029710 45.911156 18.586725 -5.556732 -4.511853 -0.117194 2.041015 2.460938 -0.214845 -10.342112 1.084021 -0.693336 1.025391 9.619169 0.185547 -67.363281 -5.673924 -0.499021 9.277344 -6.083985 0.634766 -70.057457 -15.011206 18.660021 -7.490400 -15.586263 0.419958 5.966797 -0.068361 0.166018 -5.009840 5.586020 0.214833 71.630859 8.681640 18.544926 -0.439453 -23.702749 0.687562 -5.957031 0.058594 0.166016 16.484375 4.384766 -0.332031 -2.509766 -5.820313 0.741197 3.789063 -0.703125 -10.781251 20.634768 5.566718 2.333972 -2.460938 5.957031 -1.132813 -28.603516 41.513672 -6.249999 
-0.005242 46.202446 18.337095 -1.943359 -4.755859 -0.030107 3.242188 2.060567 -0.214841 -8.750000 0.820313 -0.585798 3.554688 8.583983 0.341797 -66.092148 -5.000314 -0.537787 9.277344 -6.083985 0.634766 -70.057457 -15.011206 18.660021 -4.394531 -16.347654 0.683594 5.966797 -0.068361 0.166018 -5.009840 5.586020 0.214833 71.630859 8.681640 18.544926 -4.394531 -28.224842 0.791072 -5.957031 0.058594 0.166016 10.917969 4.248047 -0.234375 -2.451172 -5.830078 0.761719 3.769531 -1.865255 -11.865103 16.738279 5.771485 1.943393 -2.460938 5.957031 -1.132813 -21.113283 37.939449 -8.222656 
-0.028330 46.282734 16.888399 1.025391 -4.609389 0.029297 5.019531 1.650391 -0.205079 -4.013672 0.585944 -0.458880 6.025391 7.168095 0.478521 -54.928417 -2.627164 -0.508073 9.277344 -6.083985 0.634766 -70.057457 -15.011206 18.660021 -1.562500 -17.089844 1.025391 5.966797 -0.068361 0.166018 -5.009840 5.586020 0.214833 71.630859 8.681640 18.544926 -7.832213 -31.856060 0.898518 -5.957031 0.058594 0.166016 4.804688 3.710990 -0.146478 -2.431640 -5.830078 0.770492 2.724609 -2.724632 -13.037005 12.412109 5.283204 1.445335 -2.441406 5.957031 -1.142598 -22.666016 26.220705 -3.891296 
-0.030471 46.063839 14.162889 2.587890 -3.945312 0.019531 7.451172 1.337920 -0.195305 4.042969 0.468756 -0.351558 8.027345 5.673961 0.576177 -31.535875 1.914208 -0.380742 9.277344 -6.083985 0.634766 -70.057457 -15.011206 18.660021 0.996094 -17.812500 1.416016 5.966797 -0.068361 0.166018 -5.009840 5.586020 0.214833 71.630859 8.681640 18.544926 -10.801125 -34.659042 1.015799 -5.957031 0.058594 0.166016 -1.220703 2.626953 -0.029297 -2.470703 -5.820313 0.703125 1.601563 -3.017578 -14.228516 8.222655 3.994141 0.917969 -2.392578 5.957031 -1.054706 -27.275391 15.117186 -0.061140 
-0.002581 45.457584 10.082808 1.992188 -2.666032 -0.058594 10.312501 1.230506 -0.185535 14.101563 0.507812 -0.302734 9.101563 4.414179 0.615237 1.542969 8.300781 -0.283203 9.277344 -6.083985 0.634766 -70.057457 -15.011206 18.660021 3.339844 -18.525562 1.865228 5.966797 -0.068361 0.166018 -5.009840 5.586020 0.214833 71.630859 8.681640 18.544926 -13.311066 -36.693993 1.113654 -5.957031 0.058594 0.166016 -6.679687 0.976563 0.283370 -2.353516 -5.849610 0.712891 2.089844 -2.841815 -15.126864 4.550781 1.816431 0.537104 -2.158203 5.966797 -1.044940 -30.849611 7.695313 1.455111 
0.064428 44.375797 4.570405 -1.542976 -0.673831 -0.253905 12.265625 1.181641 -0.214845 18.935547 0.556641 -0.351563 8.847656 3.652439 0.566406 22.001951 13.027343 -0.966797 9.277344 -6.083985 0.634766 -70.057457 -15.011206 18.660021 5.429688 -19.199217 2.353516 5.966797 -0.068361 0.166018 -5.009840 5.586020 0.214833 71.630859 8.681640 18.544926 -15.401079 -38.002964 1.221195 -5.957031 0.058594 0.166016 -10.761720 -1.220703 0.751953 -2.558594 -5.878906 0.721656 7.099609 -1.845742 -15.243832 0.576172 -1.367188 0.175781 0.615234 6.113281 -0.625011 -32.646484 3.261719 1.347101 
0.173679 42.797386 -2.263459 -8.339844 2.011719 -0.575829 12.089844 1.044958 -0.332012 12.304688 0.400391 -0.537110 7.041016 3.603590 0.419922 10.234375 12.851933 -3.017425 9.277344 -6.083985 0.634766 -70.057457 -15.011206 18.660021 7.324219 -19.863676 2.890624 5.966797 -0.068361 0.166018 -5.009840 5.586020 0.214833 71.630859 8.681640 18.544926 -17.089844 -38.646389 1.334335 -5.957031 0.058594 0.166016 -13.242188 -3.886719 1.181641 -2.470703 -5.888714 0.760713 18.183594 0.253919 -14.667264 -11.474609 -6.298828 0.000000 22.275391 7.295354 1.787183 -27.998049 1.513672 -0.078125 
0.304458 40.969631 -9.553466 -16.943357 4.960938 -0.985498 10.292970 0.869167 -0.507793 -2.050781 0.087891 -0.800781 4.257813 4.013722 0.205079 -23.017578 9.121094 -5.888671 9.277344 -6.083985 0.634766 -70.057457 -15.011206 18.660021 8.994141 -20.508307 3.476566 5.966797 -0.068361 0.166018 -5.009840 5.586020 0.214833 71.630859 8.681640 18.544926 -18.409176 -38.686886 1.436231 -5.957031 0.058594 0.166016 -13.974609 -6.503906 1.601563 -2.451172 -5.898438 0.800781 31.533205 2.793180 -14.374085 -16.533201 -11.171876 0.974670 30.332029 7.734375 2.841796 -10.234375 0.605469 -1.171875 
0.430091 39.206886 -16.245682 -25.478514 7.607422 -1.424520 7.792969 0.703141 -0.703108 -17.959913 -0.302750 -1.083935 1.259766 4.511735 -0.029296 -59.421299 4.267895 -8.729292 9.277344 -6.083985 0.634766 -70.057457 -15.011206 18.660021 10.458984 -21.113281 4.072266 5.966797 -0.068361 0.166018 -5.009840 5.586020 0.214833 71.630859 8.681640 18.544926 -19.384766 -38.158024 1.539364 -5.957031 0.058594 0.166016 -13.134765 -8.701172 1.707507 -2.714844 -5.898485 0.897429 41.445313 4.912109 -14.795127 -15.625000 -14.746093 1.992188 27.001953 7.060547 2.353564 11.044922 0.078128 -1.591747 
0.529020 37.757359 -21.496487 -32.431641 9.501954 -1.853907 5.380860 0.595713 -0.859362 -30.344290 -0.742244 -1.337832 -1.250000 4.853516 -0.243318 -84.081932 0.263676 -10.829856 9.277344 -6.083985 0.634766 -70.057457 -15.011206 18.660021 11.757813 -21.708984 4.707031 5.966797 -0.068361 0.166018 -5.009840 5.586020 0.214833 71.630859 8.681640 18.544926 -20.049976 -37.133980 1.631629 -5.957031 0.058594 0.166016 -11.689453 -10.175780 1.648666 -2.763672 -5.888671 0.898438 46.923828 6.152863 -15.302066 -10.644531 -17.646484 1.708984 16.914063 6.728516 1.181641 31.357422 0.478552 -2.333830 
0.600143 36.604591 -25.303501 -37.728268 10.655156 -2.274534 3.183594 0.537115 -0.986320 -38.603516 -1.171875 -1.552934 -3.173828 4.970704 -0.429694 -95.917969 -2.587911 -12.168058 9.277344 -6.083985 0.634766 -70.057457 -15.011206 18.660021 12.861328 -22.266369 5.351577 5.966797 -0.068361 0.166018 -5.009840 5.586020 0.214833 71.630859 8.681640 18.544926 -20.421114 -35.659126 1.729284 -5.957031 0.058594 0.166016 -10.000000 -11.005859 1.443448 -2.880859 -5.878906 0.878906 49.804688 6.807207 -15.477972 -3.535156 -19.306639 0.426459 3.759766 6.171944 -0.244133 49.667969 0.908203 -3.369150 
0.647472 35.665955 -27.874655 -41.635170 11.163032 -2.674729 1.210938 0.527346 -1.093748 -43.320313 -1.562500 -1.709251 -4.492187 4.902344 -0.585111 -97.373047 -4.482422 -12.881346 9.277344 -6.083985 0.634766 -70.057457 -15.011206 18.660021 13.818359 -22.823076 6.015640 5.966797 -0.068361 0.166018 -5.009840 5.586020 0.214833 71.630859 8.681640 18.544926 -20.538313 -33.780781 1.807240 -5.957031 0.058594 0.166016 -8.388672 -11.250000 1.209032 -2.958984 -5.859426 0.916966 51.191406 7.041596 -15.302265 -0.537109 -20.390656 -0.130355 -0.800781 5.996094 -0.722669 59.492184 1.425781 -4.394550 
